<svg width="90" height="90" viewBox="0 0 90 90" fill="none" xmlns="http://www.w3.org/2000/svg">
<g clip-path="url(#clip0_21_341)">
<rect width="90" height="90" rx="4" fill="white"/>
<path d="M20.9975 11.795C22.0841 11.795 22.965 10.9525 22.965 9.91309C22.965 8.87371 22.0841 8.03113 20.9975 8.03113C19.9109 8.03113 19.03 8.87371 19.03 9.91309C19.03 10.9525 19.9109 11.795 20.9975 11.795Z" fill="black"/>
<path d="M18.0499 10.7853L14.5001 12.4856C14.4668 12.5016 14.4533 12.5404 14.47 12.5723L14.8595 13.3164C14.8762 13.3483 14.9168 13.3612 14.9501 13.3452L18.4999 11.6449C18.5332 11.6289 18.5467 11.5901 18.53 11.5582L18.1405 10.8142C18.1238 10.7823 18.0832 10.7694 18.0499 10.7853Z" fill="black"/>
<path d="M11.9975 16.0994C13.0855 16.0994 13.9675 15.2557 13.9675 14.215C13.9675 13.1743 13.0855 12.3307 11.9975 12.3307C10.9095 12.3307 10.0275 13.1743 10.0275 14.215C10.0275 15.2557 10.9095 16.0994 11.9975 16.0994Z" fill="black"/>
<path d="M29.9975 16.0994C31.0855 16.0994 31.9675 15.2557 31.9675 14.215C31.9675 13.1743 31.0855 12.3307 29.9975 12.3307C28.9095 12.3307 28.0275 13.1743 28.0275 14.215C28.0275 15.2557 28.9095 16.0994 29.9975 16.0994Z" fill="black"/>
<path d="M18.577 17.1649L14.908 15.2196C14.8766 15.2029 14.837 15.2137 14.8196 15.2438L14.4027 15.9633C14.3853 15.9933 14.3966 16.0311 14.428 16.0478L18.097 17.9931C18.1284 18.0098 18.168 17.9989 18.1854 17.9689L18.6023 17.2494C18.6197 17.2194 18.6084 17.1815 18.577 17.1649Z" fill="black"/>
<path d="M27.0939 15.2288L23.4336 17.1695C23.401 17.1868 23.3892 17.2261 23.4073 17.2572L23.8194 17.9683C23.8374 17.9995 23.8785 18.0108 23.9111 17.9935L27.5714 16.0528C27.604 16.0355 27.6158 15.9962 27.5977 15.965L27.1856 15.2539C27.1675 15.2227 27.1265 15.2115 27.0939 15.2288Z" fill="black"/>
<path d="M21 20.8796C22.0866 20.8796 22.9675 20.037 22.9675 18.9976C22.9675 17.9583 22.0866 17.1157 21 17.1157C19.9134 17.1157 19.0325 17.9583 19.0325 18.9976C19.0325 20.037 19.9134 20.8796 21 20.8796Z" fill="black"/>
<path d="M21.4325 21.8505H20.5675C20.5302 21.8505 20.5 21.8794 20.5 21.915V25.1816C20.5 25.2172 20.5302 25.2461 20.5675 25.2461H21.4325C21.4698 25.2461 21.5 25.2172 21.5 25.1816V21.915C21.5 21.8794 21.4698 21.8505 21.4325 21.8505Z" fill="black"/>
<path d="M11.9975 25.667C13.0855 25.667 13.9675 24.8233 13.9675 23.7826C13.9675 22.742 13.0855 21.8983 11.9975 21.8983C10.9095 21.8983 10.0275 22.742 10.0275 23.7826C10.0275 24.8233 10.9095 25.667 11.9975 25.667Z" fill="black"/>
<path d="M29.9975 25.667C31.0855 25.667 31.9675 24.8233 31.9675 23.7826C31.9675 22.742 31.0855 21.8983 29.9975 21.8983C28.9095 21.8983 28.0275 22.742 28.0275 23.7826C28.0275 24.8233 28.9095 25.667 29.9975 25.667Z" fill="black"/>
<path d="M18.5071 26.3587L14.9529 24.6562C14.9208 24.6408 14.8817 24.6532 14.8656 24.684L14.4738 25.4323C14.4578 25.463 14.4708 25.5004 14.5029 25.5158L18.0571 27.2182C18.0892 27.2336 18.1283 27.2212 18.1443 27.1905L18.5361 26.4421C18.5522 26.4114 18.5392 26.374 18.5071 26.3587Z" fill="black"/>
<path d="M27.0476 24.656L23.5023 26.3541C23.469 26.3701 23.4555 26.4089 23.4722 26.4408L23.8617 27.1849C23.8784 27.2168 23.919 27.2297 23.9523 27.2137L27.4976 25.5155C27.531 25.4996 27.5445 25.4608 27.5278 25.4289L27.1382 24.6848C27.1215 24.6529 27.081 24.64 27.0476 24.656Z" fill="black"/>
<path d="M20.995 29.9713C22.0844 29.9713 22.9675 29.1266 22.9675 28.0846C22.9675 27.0426 22.0844 26.1979 20.995 26.1979C19.9056 26.1979 19.0225 27.0426 19.0225 28.0846C19.0225 29.1266 19.9056 29.9713 20.995 29.9713Z" fill="black"/>
<path d="M60.442 81H55.186V72.492H60.442V73.836H56.626V76.092H60.082V77.4H56.626V79.656H60.442V81ZM62.8106 78.06C62.8106 79.176 63.4346 79.92 64.3826 79.92C65.2946 79.92 65.9306 79.164 65.9306 78.048C65.9306 76.932 65.3066 76.236 64.3946 76.236C63.4826 76.236 62.8106 76.944 62.8106 78.06ZM67.2746 72.312V79.932C67.2746 80.46 67.3226 80.904 67.3346 81H66.0026C65.9786 80.868 65.9426 80.484 65.9426 80.244C65.6666 80.736 65.0546 81.144 64.2266 81.144C62.5466 81.144 61.4186 79.824 61.4186 78.06C61.4186 76.38 62.5586 75 64.2026 75C65.2226 75 65.7386 75.468 65.9186 75.84V72.312H67.2746ZM68.6734 81.324L69.9574 80.988C70.0534 81.708 70.6174 82.248 71.4214 82.248C72.5254 82.248 73.0774 81.684 73.0774 80.496V79.884C72.8254 80.34 72.2374 80.736 71.3854 80.736C69.8254 80.736 68.6854 79.536 68.6854 77.892C68.6854 76.332 69.7774 75.048 71.3854 75.048C72.2974 75.048 72.8614 75.42 73.1134 75.9V75.156H74.4574V80.448C74.4574 82.008 73.6534 83.46 71.4574 83.46C69.9094 83.46 68.8294 82.5 68.6734 81.324ZM71.6134 79.548C72.5014 79.548 73.1134 78.9 73.1134 77.892C73.1134 76.896 72.4774 76.248 71.6134 76.248C70.7254 76.248 70.0894 76.896 70.0894 77.892C70.0894 78.912 70.7014 79.548 71.6134 79.548ZM77.1318 77.436H79.9998C79.9758 76.752 79.5198 76.14 78.5598 76.14C77.6838 76.14 77.1798 76.812 77.1318 77.436ZM80.1558 78.96L81.3318 79.332C81.0198 80.352 80.0958 81.18 78.6918 81.18C77.1078 81.18 75.7038 80.028 75.7038 78.048C75.7038 76.2 77.0718 74.976 78.5478 74.976C80.3478 74.976 81.4038 76.164 81.4038 78.012C81.4038 78.24 81.3798 78.432 81.3678 78.456H77.0958C77.1318 79.344 77.8278 79.98 78.6918 79.98C79.5318 79.98 79.9638 79.536 80.1558 78.96Z" fill="url(#paint0_linear_21_341)"/>
<g clip-path="url(#clip1_21_341)">
<path d="M64.0407 93.8058C12.1639 50.4518 80.6128 30.3372 112.704 31.3994C144.795 32.4615 119.607 48.2267 169.07 87.8635C193.534 107.51 140.997 153.236 108.856 152.172C88.3394 151.493 89.777 139.605 84.5373 123.625C81.6058 114.529 76.4777 104.195 64.0407 93.8058Z" stroke="#C9CACE" stroke-width="0.5" stroke-miterlimit="10"/>
<path d="M172.102 87.9172C192.484 110.693 142.608 154.129 108.828 153.011C88.0136 152.322 86.1107 140.696 79.2702 124.99C74.9697 115.196 69.8393 103.416 59.175 92.0594C17.7672 47.9331 79.0677 27.442 112.848 28.5601C133.463 29.2424 133.329 36.3251 142.983 51.1449C145.395 54.9084 148.392 59.0173 152.016 63.7067C157.403 70.7387 163.9 78.7869 172.102 87.9172Z" stroke="#C9CACE" stroke-width="0.5" stroke-miterlimit="10"/>
<path d="M175.132 88.0174C191.427 114.061 144.268 155.069 108.799 153.895C87.6366 153.195 82.342 141.876 74.0021 126.4C68.3336 115.862 63.2417 102.918 54.2596 90.3115C22.9939 46.2876 77.4726 24.5446 112.942 25.7186C133.309 26.3927 136.551 33.6339 147.026 47.6886C149.93 51.6082 153.269 55.915 156.885 60.8371C162.642 68.7209 168.756 77.8288 175.132 88.0174Z" stroke="#C9CACE" stroke-width="0.5" stroke-miterlimit="10"/>
<path d="M178.163 88.1178C190.219 117.518 145.879 155.962 108.771 154.734C87.3108 154.024 78.4252 143.006 68.735 127.765C61.5978 116.525 56.4917 102.508 49.3959 88.5184C27.5483 45.4127 75.9291 21.6031 113.037 22.8314C133.156 23.4973 139.826 30.8519 151.021 44.1845C154.465 48.3081 158.097 52.7644 161.708 57.8729C167.93 66.7048 173.511 76.9138 178.163 88.1178Z" stroke="#C9CACE" stroke-width="0.5" stroke-miterlimit="10"/>
<path d="M181.143 88.2164C188.86 121.017 147.44 156.9 108.642 155.616C86.8342 154.894 74.3554 144.27 63.3671 129.172C54.7101 117.276 49.3864 102.32 44.4294 86.8157C31.1404 45.0653 74.2829 18.7513 113.08 20.0354C132.901 20.6915 143.15 28.0711 155.013 40.7728C158.999 45.0547 162.922 49.7535 166.528 55.0017C173.169 64.6865 178.265 75.9987 181.143 88.2164Z" stroke="#C9CACE" stroke-width="0.5" stroke-miterlimit="10"/>
<path d="M184.173 88.3171C187.403 124.465 149.05 157.839 108.613 156.501C86.5069 155.769 70.3337 145.582 58.099 130.583C47.8705 118.075 41.9335 102.12 39.5636 85.069C33.9395 44.6453 72.7374 15.856 113.224 17.196C132.796 17.8438 146.627 25.2021 159.106 37.3181C163.636 41.711 167.848 46.6529 171.496 52.1354C178.408 62.6686 182.97 75.0819 184.173 88.3171Z" stroke="#C9CACE" stroke-width="0.5" stroke-miterlimit="10"/>
<path d="M34.6467 83.3675C35.954 43.8724 71.1412 13.0048 113.267 14.3991C132.591 15.0387 150.002 22.3762 163.098 33.9064C168.221 38.412 172.674 43.5952 176.315 49.2641C183.645 60.6971 187.675 74.1652 187.204 88.4169C185.896 127.913 150.71 158.78 108.584 157.385C66.4582 155.991 33.3395 122.863 34.6467 83.3675Z" stroke="#C9CACE" stroke-width="0.5" stroke-miterlimit="10"/>
<path d="M112.844 12.1476C132.566 12.8004 150.322 20.2418 163.657 32.0601C168.875 36.662 173.425 41.9415 177.113 47.7055C184.584 59.376 188.706 73.0806 188.224 87.6584C186.89 127.945 150.986 159.442 108.016 158.019C65.0456 156.597 31.3027 122.796 32.6361 82.5087C33.9696 42.2216 69.8737 10.7254 112.844 12.1476Z" stroke="#C9CACE" stroke-width="0.5" stroke-miterlimit="10"/>
<path d="M112.37 9.94029C132.439 10.6046 150.588 18.1993 164.165 30.2118C169.48 34.9104 174.126 40.2861 177.909 46.1931C185.523 58.055 189.733 72.0884 189.242 86.9461C187.882 128.025 151.261 160.15 107.446 158.7C63.6313 157.25 29.2147 122.773 30.5744 81.6945C31.934 40.6155 68.5551 8.49008 112.37 9.94029Z" stroke="#C9CACE" stroke-width="0.5" stroke-miterlimit="10"/>
<path d="M111.897 7.68674C132.364 8.36416 150.857 16.1101 164.674 28.3639C170.085 33.1588 174.827 38.6313 178.657 44.6324C186.412 56.7323 190.714 71.0022 190.213 86.1388C188.827 128.01 151.54 160.719 106.881 159.241C62.2222 157.762 27.18 122.659 28.5658 80.7885C29.9517 38.9182 67.2385 6.20859 111.897 7.68674Z" stroke="#C9CACE" stroke-width="0.5" stroke-miterlimit="10"/>
<path d="M111.425 5.43316C132.289 6.12374 151.075 14.0193 165.184 26.4689C170.692 31.3605 175.53 36.9292 179.456 43.0271C187.353 55.3646 191.744 69.9171 191.234 85.3336C189.822 127.996 151.818 161.334 106.315 159.828C60.8111 158.322 25.0946 122.544 26.5067 79.8813C27.9187 37.2191 65.9709 3.9287 111.425 5.43316Z" stroke="#C9CACE" stroke-width="0.5" stroke-miterlimit="10"/>
<path d="M111.002 3.18109C132.264 3.88483 151.393 11.9316 165.792 24.6242C171.396 29.612 176.331 35.277 180.302 41.5166C188.34 54.0918 192.774 68.8791 192.254 84.5745C190.818 127.982 152.097 161.949 105.798 160.417C59.4996 158.885 23.1094 122.431 24.5462 79.0236C25.9829 35.6161 64.6538 1.64748 111.002 3.18155L111.002 3.18109Z" stroke="#C9CACE" stroke-width="0.5" stroke-miterlimit="10"/>
<path d="M22.4844 78.2094C21.0209 122.426 58.0666 159.536 105.228 161.097C152.39 162.658 191.809 128.079 193.272 83.8622C194.736 39.6452 157.69 2.53524 110.528 0.97425C63.3665 -0.586741 23.948 33.9924 22.4844 78.2094Z" stroke="#C9CACE" stroke-width="0.5" stroke-miterlimit="10"/>
</g>
</g>
<defs>
<linearGradient id="paint0_linear_21_341" x1="54" y1="69" x2="83.8777" y2="76.1137" gradientUnits="userSpaceOnUse">
<stop stop-color="#AD00FF"/>
<stop offset="1" stop-color="#FF5C00"/>
</linearGradient>
<clipPath id="clip0_21_341">
<rect width="90" height="90" rx="4" fill="white"/>
</clipPath>
<clipPath id="clip1_21_341">
<rect width="150.314" height="113.902" fill="white" transform="translate(-60.2321 -5) rotate(1.89572)"/>
</clipPath>
</defs>
</svg>
